HIERARCHY
ROOT SpineBase
{
  OFFSET 0.000000 0.000000 0.000000
  CHANNELS 6 Xposition Yposition Zposition Zrotation Xrotation Yrotation
  JOINT SpineMid
  {
    OFFSET 0.000000 31.277770 0.000000
    CHANNELS 3 Zrotation Xrotation Yrotation
    JOINT SpineShoulder
    {
      OFFSET 0.037415 23.248393 -0.827634
      CHANNELS 3 Zrotation Xrotation Yrotation
      JOINT Neck
      {
        OFFSET 0.040795 7.697920 -0.605347
        CHANNELS 3 Zrotation Xrotation Yrotation
        JOINT Head
        {
          OFFSET -5.476837 12.621689 0.966851
          CHANNELS 3 Zrotation Xrotation Yrotation
          End Site
          {
            OFFSET 0 0 0
          }
        }
      }
      JOINT ShoulderLeft
      {
        OFFSET -16.469086 -5.376284 10.488084
        CHANNELS 3 Zrotation Xrotation Yrotation
        JOINT ElbowLeft
        {
          OFFSET -2.035895 -24.294973 0.585375
          CHANNELS 3 Zrotation Xrotation Yrotation
          JOINT WristLeft
          {
            OFFSET -2.824049 -24.227585 -1.246590
            CHANNELS 3 Zrotation Xrotation Yrotation
            JOINT HandLeft
            {
              OFFSET -5.008030 -11.179319 1.315461
              CHANNELS 3 Zrotation Xrotation Yrotation
              JOINT HandTipLeft
              {
                OFFSET -1.044075 -6.736398 -0.974189
                CHANNELS 3 Zrotation Xrotation Yrotation
                End Site
                {
                  OFFSET 0 0 0
                }
              }
              JOINT ThumbLeft
              {
                OFFSET -4.181765 2.490114 -2.328369
                CHANNELS 3 Zrotation Xrotation Yrotation
                End Site
                {
                  OFFSET 0 0 0
                }
              }
            }
          }
        }
      }
      JOINT ShoulderRight
      {
        OFFSET 13.243928 -2.462080 -8.259969
        CHANNELS 3 Zrotation Xrotation Yrotation
        JOINT ElbowRight
        {
          OFFSET 7.474013 -23.238345 -4.607706
          CHANNELS 3 Zrotation Xrotation Yrotation
          JOINT WristRight
          {
            OFFSET 2.450552 -23.263341 -6.301703
            CHANNELS 3 Zrotation Xrotation Yrotation
            JOINT HandRight
            {
              OFFSET 0.248954 -7.505267 -0.115067
              CHANNELS 3 Zrotation Xrotation Yrotation
              JOINT HandTipRight
              {
                OFFSET -0.088604 -7.992368 -0.900610
                CHANNELS 3 Zrotation Xrotation Yrotation
                End Site
                {
                  OFFSET 0 0 0
                }
              }
              JOINT ThumbRight
              {
                OFFSET -3.366842 -0.440444 -1.271482
                CHANNELS 3 Zrotation Xrotation Yrotation
                End Site
                {
                  OFFSET 0 0 0
                }
              }
            }
          }
        }
      }
    }
  }
  JOINT HipLeft
  {
    OFFSET -6.500511 -0.165771 -0.209338
    CHANNELS 3 Zrotation Xrotation Yrotation
    JOINT KneeLeft
    {
      OFFSET 1.885768 -33.872881 5.173491
      CHANNELS 3 Zrotation Xrotation Yrotation
      JOINT AnkleLeft
      {
        OFFSET 11.725868 -37.770622 8.689916
        CHANNELS 3 Zrotation Xrotation Yrotation
        JOINT FootLeft
        {
          OFFSET -1.596331 -6.388777 -5.424730
          CHANNELS 3 Zrotation Xrotation Yrotation
          End Site
          {
            OFFSET 0 0 0
          }
        }
      }
    }
  }
  JOINT HipRight
  {
    OFFSET 7.017080 2.022527 -6.762763
    CHANNELS 3 Zrotation Xrotation Yrotation
    JOINT KneeRight
    {
      OFFSET 7.764647 -33.783018 -2.126903
      CHANNELS 3 Zrotation Xrotation Yrotation
      JOINT AnkleRight
      {
        OFFSET 5.692630 -37.643585 10.239021
        CHANNELS 3 Zrotation Xrotation Yrotation
        JOINT FootRight
        {
          OFFSET -1.407508 -6.875400 -3.810164
          CHANNELS 3 Zrotation Xrotation Yrotation
          End Site
          {
            OFFSET 0 0 0
          }
        }
      }
    }
  }
}
MOTION
Frames: 5
Frame Time: 0.033333
-21.877120 79.913120 322.952226 1.941339 -0.821813 33.579352 -0.011553 0.224199 -33.502125 0.019219 0.088252 0.079661 6.075616 -4.750023 -2.684026 0.000000 0.000000 0.000000 16.842132 36.905186 -9.389470 -62.619010 22.006890 -13.435156 -47.333059 -34.121570 -58.589356 3.627749 -9.507182 11.126361 0.000000 0.000000 0.000000 0.000000 0.000000 0.000000 -1.590918 4.810827 1.165110 -68.247970 -9.599652 10.328242 -27.705092 -8.106326 -33.659571 -4.362532 34.237742 44.191612 0.000000 0.000000 0.000000 0.000000 0.000000 0.000000 0.302667 3.640541 -33.456391 -3.500137 -3.409139 -1.424369 3.832135 0.572706 0.732124 0.000000 0.000000 0.000000 -4.426180 1.787749 -33.683938 2.729440 1.785726 0.194787 -18.176266 27.082696 7.639883 0.000000 0.000000 0.000000
-21.840288 79.934409 322.939520 1.960600 -0.768693 33.507949 -0.026734 0.255354 -33.432135 0.015082 0.106754 0.078287 6.013545 -4.991865 -2.724421 0.000000 0.000000 0.000000 17.983505 37.622568 -9.972556 -64.436185 21.146118 -14.660125 -48.652418 -34.054491 -59.678176 2.995549 -8.202579 11.741586 0.000000 0.000000 0.000000 0.000000 0.000000 0.000000 -2.032755 4.869709 1.324657 -68.730171 -9.083591 10.750277 -26.147501 -5.627395 -31.336317 -1.473060 23.342278 34.055138 0.000000 0.000000 0.000000 0.000000 0.000000 0.000000 0.270976 3.593264 -33.381661 -3.549586 -3.403046 -1.434288 3.311947 1.104376 1.065895 0.000000 0.000000 0.000000 -4.544865 1.753811 -33.616905 2.791448 1.820962 0.197113 -16.909498 27.563198 6.734027 0.000000 0.000000 0.000000
-21.797776 79.953225 322.927096 1.975375 -0.713107 33.469051 -0.040866 0.278372 -33.394656 0.016238 0.116364 0.077534 5.933585 -5.248612 -2.776911 0.000000 0.000000 0.000000 16.752651 36.957015 -9.357893 -62.869181 23.551945 -13.099270 -54.233471 -37.527728 -66.211292 -5.968292 7.056421 24.411363 0.000000 0.000000 0.000000 0.000000 0.000000 0.000000 -2.487702 5.109387 1.540307 -69.512814 -8.829877 10.856575 -23.342731 -3.450750 -29.085914 -1.274518 14.451577 26.389466 0.000000 0.000000 0.000000 0.000000 0.000000 0.000000 0.233715 3.538734 -33.340571 -3.600074 -3.362123 -1.435190 3.347186 1.073625 1.064860 0.000000 0.000000 0.000000 -4.669333 1.727577 -33.580728 2.866648 1.853008 0.197707 -16.678672 27.607960 6.571630 0.000000 0.000000 0.000000
-21.762417 79.968130 322.919995 1.973108 -0.664028 33.426663 -0.044224 0.290572 -33.353788 0.020050 0.116780 0.077118 5.858415 -5.523261 -2.845584 0.000000 0.000000 0.000000 12.603201 32.964858 -7.039507 -52.605113 31.196709 -7.274118 -55.758771 -33.288198 -66.826951 -14.504996 25.092307 42.897463 0.000000 0.000000 0.000000 0.000000 0.000000 0.000000 -3.250202 5.336455 1.824958 -70.520640 -8.727542 10.939317 -19.951302 -1.083442 -26.822340 -1.993017 2.730641 15.910015 0.000000 0.000000 0.000000 0.000000 0.000000 0.000000 0.224661 3.493679 -33.295688 -3.653438 -3.327535 -1.435100 3.384096 1.032156 1.061194 0.000000 0.000000 0.000000 -4.744176 1.708688 -33.537264 2.921904 1.857445 0.194241 -18.359818 29.923003 7.559709 0.000000 0.000000 0.000000
-21.741905 79.976265 322.918291 1.949743 -0.626587 33.389173 -0.034542 0.298559 -33.318113 0.022936 0.113313 0.076413 5.835879 -5.715717 -2.890883 0.000000 0.000000 0.000000 5.864041 27.003953 -4.135538 -38.618366 43.436951 -0.978651 -55.117217 -33.707559 -66.920513 -22.568525 42.305706 56.117369 0.000000 0.000000 0.000000 0.000000 0.000000 0.000000 -4.078364 5.621096 2.148528 -71.509020 -8.897425 10.714511 -16.590353 0.777094 -25.071190 -2.498356 -7.573334 5.557424 0.000000 0.000000 0.000000 0.000000 0.000000 0.000000 0.250985 3.447821 -33.254726 -3.705971 -3.293537 -1.432471 3.411732 0.983985 1.053661 0.000000 0.000000 0.000000 -4.762869 1.693281 -33.496378 2.953398 1.839885 0.188193 -17.033315 27.448433 6.828308 0.000000 0.000000 0.000000
